<svg width="373.96274808924653" height="64.8" xmlns="http://www.w3.org/2000/svg" fill="none" class="css-1j8o68f">

 <g>
  <title>Layer 1</title>
  <g fill="#58ECF5" transform="matrix(1.182183636126537,0,0,1.182183636126537,-0.7565976511369825,-12.280375370121991)" featurekey="nameLeftFeature-0" id="SvgjsG4559">
   <path id="svg_1" d="m3.88,25.6c-0.04,1.88 -0.2,3.8 -0.28,5.76l0.36,6.96c0,0.32 0.04,0.64 0,0.96c-0.08,0.72 -0.52,1.16 -1.12,1.24c-0.72,0.12 -1.36,-0.16 -1.6,-0.84c-0.2,-0.68 -0.28,-1.36 -0.36,-2.04c-0.04,-0.68 -0.04,-1.32 -0.08,-1.96c-0.04,-1.24 -0.16,-2.44 -0.16,-3.64l0,-1.28c0,-1.76 0.12,-3.52 0.24,-5.32c0.28,-3.88 0.64,-7.8 1.6,-11.6c0.08,-0.32 0.12,-0.64 0.28,-0.96c0.52,-1.16 1.96,-1.32 2.72,-0.28c0.36,0.48 0.56,1 0.76,1.48l2.4,5.68c0.12,0.32 0.24,0.64 0.36,0.92c0.08,0.16 0.24,0.28 0.36,0.44c0.12,-0.12 0.28,-0.24 0.36,-0.36c0.64,-1.16 1.24,-2.32 1.92,-3.44c0.8,-1.4 1.68,-2.8 2.72,-4.04c0.36,-0.44 0.72,-0.88 1.12,-1.24c0.96,-0.84 2.2,-0.48 2.6,0.68c0.08,0.36 0.12,0.76 0.12,1.12l0.36,6.56c0.12,2.44 0.32,4.84 0.44,7.28c0.04,0.44 0.08,0.92 0.08,1.4c0.12,2.44 0.2,4.92 0.36,7.4c0.04,0.84 0.12,1.68 0.16,2.52c0,0.28 -0.04,0.64 -0.16,0.92c-0.24,0.56 -0.68,0.92 -1.32,0.92s-1.08,-0.32 -1.28,-0.88c-0.16,-0.4 -0.24,-0.84 -0.24,-1.24c-0.16,-2.8 -0.24,-5.6 -0.4,-8.4c-0.12,-2.04 -0.28,-4.08 -0.44,-6.12c-0.04,-0.36 -0.04,-0.76 -0.04,-1.12c-0.12,-1.84 -0.2,-3.64 -0.32,-5.44c0,-0.12 -0.04,-0.2 -0.08,-0.28c-0.12,0.08 -0.28,0.08 -0.36,0.2c-0.16,0.2 -0.32,0.44 -0.44,0.68c-0.84,1.48 -1.68,2.96 -2.48,4.4c-0.4,0.72 -0.72,1.44 -1.12,2.12c-0.2,0.32 -0.52,0.68 -0.84,0.88c-0.64,0.48 -1.48,0.4 -2.04,-0.2c-0.28,-0.36 -0.52,-0.76 -0.72,-1.2l-1.68,-4c-0.2,-0.48 -0.44,-1 -0.68,-1.52c-0.04,-0.12 -0.2,-0.12 -0.32,-0.2l-0.12,0.24c-0.28,2.28 -0.56,4.56 -0.64,6.84zm33.11,6.28c0.6,-1.6 0.8,-3.32 0.8,-5c0,-2.2 -0.36,-4.24 -1.16,-6.2c-0.48,-1.24 -1.16,-2.36 -2.12,-3.24c-0.4,-0.4 -0.88,-0.76 -1.36,-1c-1.08,-0.56 -2.16,-0.48 -3.16,0.2c-0.56,0.36 -1.04,0.84 -1.4,1.36c-0.52,0.72 -0.92,1.52 -1.2,2.4c-1.16,3.56 -1,7.16 0.32,10.68c0.44,1.2 1.04,2.28 1.88,3.24c0.44,0.48 0.96,0.88 1.52,1.2c1.28,0.76 2.52,0.6 3.64,-0.28c0.52,-0.44 0.96,-0.92 1.32,-1.48s0.64,-1.2 0.92,-1.88zm3.64,-7.6l0.2,2.32c-0.04,2.4 -0.36,4.48 -1.12,6.48c-0.6,1.52 -1.4,2.92 -2.6,4.08c-1.16,1.08 -2.56,1.72 -4.16,1.84c-0.64,0.04 -1.36,-0.16 -2.04,-0.36c-1.44,-0.4 -2.56,-1.28 -3.52,-2.36c-1.16,-1.28 -1.92,-2.76 -2.52,-4.32c-1.16,-3 -1.4,-6.08 -1.04,-9.24c0.2,-1.84 0.72,-3.64 1.64,-5.28c0.48,-0.92 1.08,-1.76 1.84,-2.48c2.56,-2.32 5.64,-2.52 8.52,-0.32c1.32,1.04 2.32,2.36 3.08,3.88c0.92,1.84 1.56,3.72 1.72,5.76zm17.55,-8.32l0,3.92c0,2.52 -0.2,5.32 -0.4,8.12c-0.16,2.04 -0.52,4.08 -1.08,6.04c-0.4,1.32 -0.92,2.52 -1.72,3.64c-1.72,2.44 -5,2.2 -6.68,0.36c-0.6,-0.64 -1.04,-1.32 -1.4,-2.12c-0.68,-1.6 -1.12,-3.24 -1.4,-4.96c-0.68,-3.92 -0.64,-7.88 -0.4,-11.84c0.08,-1.08 0.12,-2.16 0.16,-3.24c0.04,-0.4 0.08,-0.8 0.24,-1.2c0.2,-0.6 0.8,-1.04 1.36,-1c0.6,0.04 1.16,0.48 1.32,1.12c0.08,0.36 0.12,0.72 0.08,1.08c-0.36,3.44 -0.28,6.92 -0.28,10.36c0,2.2 0.4,4.36 0.96,6.48c0.24,1 0.56,2 1.16,2.84c0.28,0.4 0.6,0.68 1.08,0.84c0.44,0.16 0.84,0.12 1.16,-0.24c0.32,-0.32 0.56,-0.72 0.8,-1.12c0.52,-0.84 0.76,-1.8 0.96,-2.76c0.32,-1.48 0.56,-3 0.72,-4.56c0.16,-1.96 0.16,-3.92 0.28,-5.84c0.12,-2.04 -0.04,-4.04 0.16,-6.04c0,-0.36 0.04,-0.76 0.12,-1.12c0.28,-1.04 1.52,-1.44 2.32,-0.72c0.28,0.24 0.4,0.52 0.44,0.84c0.04,0.36 0.04,0.76 0.04,1.12zm8.59,4.88l-0.48,-1.16c-0.16,0.68 -0.28,1.2 -0.32,1.68c-0.16,1.48 -0.28,3 -0.4,4.48c-0.16,2.36 -0.28,4.76 -0.4,7.12c-0.04,0.6 -0.04,1.2 0,1.8c0.04,1.2 0.08,2.36 0.16,3.52c0,0.12 0,0.28 -0.04,0.4c-0.08,0.76 -0.56,1.24 -1.24,1.32c-0.72,0.08 -1.28,-0.24 -1.52,-0.96c-0.16,-0.48 -0.24,-1 -0.24,-1.48c-0.04,-2.56 -0.08,-5.16 0,-7.72c0.04,-1.76 0.28,-3.52 0.44,-5.28c0.08,-1.08 0.2,-2.16 0.28,-3.2c0.2,-2.36 0.6,-4.64 0.96,-6.96c0.04,-0.36 0.16,-0.72 0.28,-1.04c0.44,-1 1.8,-1.28 2.6,-0.52c0.24,0.24 0.48,0.56 0.64,0.88c0.24,0.56 0.44,1.12 0.64,1.72c1,3.12 2,6.28 3.08,9.44c0.84,2.48 1.8,4.88 2.72,7.32c0.08,0.2 0.16,0.36 0.28,0.52c0,0.04 0.08,0.04 0.12,0.04s0.16,-0.04 0.16,-0.12c0.24,-1.64 0.44,-3.32 0.64,-4.96c0.28,-2.08 0.52,-4.16 0.76,-6.28c0.12,-0.96 0.2,-1.92 0.32,-2.92l0.36,-3.48c0.04,-0.36 0.16,-0.72 0.24,-1.08c0.12,-0.4 0.4,-0.72 0.8,-0.96c0.88,-0.52 2,0.04 2.04,1.08c0.04,0.28 0,0.56 -0.04,0.84l-0.48,4c-0.44,3.68 -0.8,7.32 -1.24,11c-0.32,2.56 -0.68,5.16 -1.08,7.76c-0.04,0.36 -0.16,0.72 -0.28,1.08c-0.24,0.64 -0.72,1 -1.36,1.04c-0.64,0.08 -1.2,-0.2 -1.56,-0.72c-0.24,-0.44 -0.48,-0.92 -0.68,-1.4c-1.04,-2.6 -2.12,-5.16 -3.08,-7.8c-1.08,-2.96 -1.88,-6.08 -3.08,-9zm22.15,16.16l0.04,-10.36l0.04,0l0,-8.4l0,-2.24c0,-0.76 -0.04,-1 -0.96,-0.88c-0.84,0.12 -1.76,0.16 -2.64,0.12c-0.84,-0.04 -1.32,-0.44 -1.52,-1.2c-0.12,-0.56 0.16,-1.28 0.68,-1.52c0.4,-0.12 0.8,-0.24 1.24,-0.28c1.96,-0.12 3.88,-0.2 5.84,-0.32c0.76,-0.04 1.52,-0.08 2.24,-0.16c0.56,-0.04 1.12,-0.04 1.68,0.12c0.56,0.2 0.92,0.56 1,1.2c0.08,0.6 -0.2,1.08 -0.72,1.36c-0.28,0.16 -0.64,0.24 -0.96,0.28c-0.4,0.04 -0.84,0 -1.24,0.04c-0.48,0.04 -0.92,0.08 -1.36,0.2c-0.16,0.04 -0.28,0.24 -0.36,0.4c-0.04,0.16 0,0.36 0,0.56c0.04,3 -0.08,6.04 -0.08,9.08l0,12.04c0,0.4 0,0.84 -0.04,1.24c-0.08,0.76 -0.72,1.36 -1.4,1.32c-0.64,0 -1.28,-0.56 -1.4,-1.2c-0.08,-0.48 -0.08,-0.92 -0.08,-1.4zm17.27,-16.4c1.6,0 7.64,0.08 9.08,0.08c0.36,0 0.76,0 1.12,-0.04c0.16,0 0.32,-0.24 0.28,-0.4c-0.56,-1.96 -1.28,-3.8 -2.68,-5.32c-0.36,-0.4 -0.8,-0.76 -1.28,-1.08c-0.96,-0.6 -2,-0.64 -3.04,-0.12c-0.72,0.36 -1.36,0.84 -1.88,1.44c-1.16,1.4 -2,2.92 -2.56,4.64c-0.08,0.12 -0.12,0.28 -0.08,0.4c0,0.12 0.12,0.28 0.2,0.28c0.28,0.08 0.56,0.12 0.84,0.12zm-0.6,2.88l-1,0c-0.24,0 -0.44,0.16 -0.48,0.4c-0.12,0.4 -0.2,0.84 -0.24,1.24c-0.32,2.56 -0.44,5.12 -0.16,7.68c0.2,1.6 0.44,3.12 0.88,4.68c0.08,0.24 0.16,0.52 0.16,0.8c0.08,0.68 -0.32,1.28 -0.96,1.52c-0.56,0.24 -1.24,0 -1.64,-0.52c-0.16,-0.28 -0.28,-0.56 -0.4,-0.88c-0.24,-1 -0.52,-2 -0.72,-3c-0.28,-1.48 -0.4,-2.96 -0.4,-4.44c0.04,-1.56 -0.04,-3.08 0.12,-4.64c0.32,-3.64 1.2,-7.16 2.96,-10.4c0.84,-1.52 1.88,-2.92 3.28,-4c1.12,-0.88 2.4,-1.44 3.84,-1.52c1.16,-0.08 2.28,0.24 3.32,0.84c1.16,0.68 2.08,1.6 2.84,2.68c1.16,1.6 1.92,3.4 2.48,5.28c0.92,3.12 1.24,6.32 1.16,9.56c-0.08,3.04 -0.56,6.04 -1.48,8.96c-0.16,0.48 -0.36,0.96 -0.6,1.4c-0.32,0.56 -1.04,0.84 -1.72,0.6c-0.6,-0.24 -1.04,-0.92 -0.92,-1.56c0.08,-0.44 0.24,-0.84 0.36,-1.2c0.72,-2.28 1.2,-4.6 1.28,-7c0.04,-0.72 0.16,-1.4 0.16,-2.12c-0.04,-1.16 -0.12,-2.32 -0.24,-3.48c-0.04,-0.52 -0.16,-0.64 -0.68,-0.64c-1.76,-0.04 -9.48,-0.24 -11.2,-0.24zm19.15,-0.32l0.04,0l0,-7.96c0,-0.48 0,-0.92 0.04,-1.4c0.04,-0.32 0.12,-0.64 0.24,-0.96c0.2,-0.52 0.68,-0.72 1.24,-0.76c0.52,0 0.96,0.24 1.24,0.76c0.2,0.36 0.28,0.76 0.28,1.2c-0.08,1.48 -0.12,2.96 -0.12,4.48c-0.04,2 -0.04,4 0,6c0.04,3.52 0.2,7 0.28,10.48c0.04,0.84 0.12,1.68 0.16,2.52c0,0.36 -0.08,0.76 -0.16,1.08c-0.2,0.64 -0.68,0.88 -1.28,0.92c-0.56,0 -1.04,-0.24 -1.24,-0.76c-0.2,-0.36 -0.28,-0.76 -0.32,-1.2c-0.08,-0.6 -0.04,-1.2 -0.08,-1.8l-0.24,-6.28c-0.08,-2.12 -0.04,-4.2 -0.08,-6.32zm11.95,-2.32l-0.48,-1.16c-0.16,0.68 -0.28,1.2 -0.32,1.68c-0.16,1.48 -0.28,3 -0.4,4.48c-0.16,2.36 -0.28,4.76 -0.4,7.12c-0.04,0.6 -0.04,1.2 0,1.8c0.04,1.2 0.08,2.36 0.16,3.52c0,0.12 0,0.28 -0.04,0.4c-0.08,0.76 -0.56,1.24 -1.24,1.32c-0.72,0.08 -1.28,-0.24 -1.52,-0.96c-0.16,-0.48 -0.24,-1 -0.24,-1.48c-0.04,-2.56 -0.08,-5.16 0,-7.72c0.04,-1.76 0.28,-3.52 0.44,-5.28c0.08,-1.08 0.2,-2.16 0.28,-3.2c0.2,-2.36 0.6,-4.64 0.96,-6.96c0.04,-0.36 0.16,-0.72 0.28,-1.04c0.44,-1 1.8,-1.28 2.6,-0.52c0.24,0.24 0.48,0.56 0.64,0.88c0.24,0.56 0.44,1.12 0.64,1.72c1,3.12 2,6.28 3.08,9.44c0.84,2.48 1.8,4.88 2.72,7.32c0.08,0.2 0.16,0.36 0.28,0.52c0,0.04 0.08,0.04 0.12,0.04s0.16,-0.04 0.16,-0.12c0.24,-1.64 0.44,-3.32 0.64,-4.96c0.28,-2.08 0.52,-4.16 0.76,-6.28c0.12,-0.96 0.2,-1.92 0.32,-2.92l0.36,-3.48c0.04,-0.36 0.16,-0.72 0.24,-1.08c0.12,-0.4 0.4,-0.72 0.8,-0.96c0.88,-0.52 2,0.04 2.04,1.08c0.04,0.28 0,0.56 -0.04,0.84l-0.48,4c-0.44,3.68 -0.8,7.32 -1.24,11c-0.32,2.56 -0.68,5.16 -1.08,7.76c-0.04,0.36 -0.16,0.72 -0.28,1.08c-0.24,0.64 -0.72,1 -1.36,1.04c-0.64,0.08 -1.2,-0.2 -1.56,-0.72c-0.24,-0.44 -0.48,-0.92 -0.68,-1.4c-1.04,-2.6 -2.12,-5.16 -3.08,-7.8c-1.08,-2.96 -1.88,-6.08 -3.08,-9z"/>
  </g>
  <g fill="#58ECF5" transform="matrix(0.7199959717022254,0,0,0.7199959717022254,190.69852209282277,-3.5996200582780755)" featurekey="inlineSymbolFeature-0" id="SvgjsG4560">
   <g id="svg_2" xmlns="http://www.w3.org/2000/svg">
    <path id="svg_3" d="m88.993,64.666c0,-0.326 -0.264,-0.592 -0.592,-0.592l-76.803,0c-0.326,0 -0.592,0.266 -0.592,0.592c0,0.328 0.266,0.593 0.592,0.593l76.803,0c0.328,0 0.592,-0.265 0.592,-0.593z"/>
    <path id="svg_4" d="m17.934,75.173l64.131,0c0.328,0 0.594,-0.265 0.594,-0.593c0,-0.327 -0.266,-0.592 -0.594,-0.592l-64.131,0c-0.328,0 -0.592,0.265 -0.592,0.592c0,0.328 0.264,0.593 0.592,0.593z"/>
    <path id="svg_5" d="m29.947,85.087l40.107,0c0.326,0 0.592,-0.265 0.592,-0.593c0,-0.327 -0.266,-0.592 -0.592,-0.592l-40.107,0c-0.327,0 -0.593,0.265 -0.593,0.592c0,0.328 0.266,0.593 0.593,0.593z"/>
    <path id="svg_6" d="m60.026,93.816l-20.053,0c-0.326,0 -0.592,0.265 -0.592,0.592s0.266,0.592 0.592,0.592l20.053,0c0.328,0 0.594,-0.265 0.594,-0.592s-0.266,-0.592 -0.594,-0.592z"/>
    <path id="svg_7" d="m22.721,40.711c0.008,0.006 0.018,0.003 0.025,0.008c0.092,0.055 0.191,0.088 0.297,0.089c0.001,0 0.002,0.001 0.004,0.001s0.004,-0.001 0.006,-0.001c0.104,-0.001 0.203,-0.034 0.293,-0.088c0.01,-0.005 0.018,-0.003 0.026,-0.008l2.737,-1.794l2.086,1.514l-8.133,14.287c-0.162,0.285 -0.062,0.646 0.221,0.809c0.084,0.047 0.175,0.066 0.266,0.07c0.01,0 0.018,0.007 0.027,0.007c0.018,0 0.032,-0.011 0.049,-0.013c0.069,-0.006 0.134,-0.023 0.197,-0.052c0.023,-0.012 0.047,-0.021 0.07,-0.036c0.078,-0.049 0.15,-0.111 0.199,-0.199l18.914,-33.224l2.816,1.853c0.008,0.005 0.018,0.003 0.025,0.008c0.09,0.054 0.189,0.087 0.295,0.089c0.001,0 0.003,0.001 0.004,0.001c0,0 0,0 0.002,0c0.001,0 0.002,-0.001 0.004,-0.001c0.105,-0.002 0.203,-0.035 0.295,-0.088c0.008,-0.006 0.018,-0.004 0.025,-0.008l2.736,-1.795l2.451,1.779c0.02,0.012 0.039,0.018 0.059,0.029c0.019,0.01 0.037,0.02 0.056,0.027c0.075,0.033 0.153,0.056 0.233,0.056s0.158,-0.022 0.234,-0.056c0.02,-0.008 0.037,-0.018 0.055,-0.027c0.02,-0.012 0.041,-0.018 0.059,-0.029l2.435,-1.766l2.433,1.766c0.02,0.012 0.039,0.018 0.059,0.029c0.018,0.01 0.035,0.019 0.055,0.027c0.076,0.033 0.154,0.056 0.234,0.056c0,0 0,0 0.002,0c0.078,0 0.156,-0.022 0.232,-0.056c0.02,-0.008 0.037,-0.016 0.055,-0.027c0.018,-0.01 0.039,-0.016 0.057,-0.027l2.541,-1.817l3.961,6.957c0,0.001 0,0.003 0.001,0.004l14.942,26.24c0.109,0.192 0.309,0.3 0.514,0.3c0.1,0 0.201,-0.024 0.293,-0.077c0.285,-0.162 0.385,-0.523 0.223,-0.809l-14.783,-25.963l0.961,-1.876l2.777,1.827c0.008,0.006 0.018,0.004 0.025,0.008c0.09,0.055 0.189,0.088 0.295,0.089c0.002,0 0.003,0.001 0.004,0.001l0.001,0l0.001,0c0.002,0 0.002,-0.001 0.004,-0.001c0.104,-0.001 0.205,-0.034 0.295,-0.088c0.008,-0.005 0.018,-0.003 0.025,-0.008l2.736,-1.795l2.453,1.779c0.018,0.013 0.039,0.019 0.058,0.029s0.036,0.02 0.056,0.028c0.075,0.033 0.153,0.055 0.232,0.055c0,0 0,0 0.002,0c0.079,0 0.156,-0.021 0.232,-0.055c0.02,-0.009 0.037,-0.018 0.057,-0.028c0.018,-0.011 0.039,-0.017 0.057,-0.029l2.339,-1.696l16.312,28.312c0.164,0.284 0.525,0.38 0.809,0.218c0.283,-0.163 0.382,-0.525 0.219,-0.809l-23.053,-40.011c-0.109,-0.188 -0.326,-0.327 -0.527,-0.296c-0.218,0.005 -0.414,0.128 -0.514,0.321l-5.576,10.879c-0.021,0.024 -0.049,0.041 -0.066,0.068c-0.049,0.074 -0.076,0.153 -0.088,0.234l-0.826,1.612l-3.715,-6.526c-0.016,-0.038 -0.025,-0.078 -0.05,-0.112c-0.008,-0.011 -0.021,-0.017 -0.028,-0.026l-8.874,-15.583c-0.211,-0.37 -0.818,-0.37 -1.029,0l-8.877,15.591c-0.012,0.014 -0.027,0.021 -0.037,0.038c-0.021,0.03 -0.025,0.065 -0.04,0.098l-8.352,14.672l-4.487,-7.472c-0.105,-0.173 -0.289,-0.282 -0.492,-0.286c-0.215,-0.018 -0.393,0.092 -0.506,0.26l-17.956,26.502c-0.184,0.271 -0.111,0.64 0.158,0.822c0.271,0.186 0.641,0.113 0.822,-0.158l11.26,-16.617l3.016,1.984zm46.3,-24.47l5.603,9.723l-2.092,1.517l-2.434,-1.766c-0.004,-0.003 -0.008,-0.003 -0.012,-0.005c-0.033,-0.023 -0.072,-0.035 -0.109,-0.051c-0.035,-0.015 -0.066,-0.035 -0.104,-0.043c-0.02,-0.004 -0.039,0 -0.059,-0.002c-0.057,-0.007 -0.111,-0.012 -0.168,-0.002c-0.018,0.003 -0.035,0.014 -0.053,0.02c-0.057,0.016 -0.111,0.031 -0.16,0.062c-0.003,0.002 -0.006,0.002 -0.01,0.004l-2.752,1.806l-2.561,-1.685l4.911,-9.578zm-20.294,-9.473l8.142,14.301l-2.294,1.64l-2.437,-1.766c-0.008,-0.006 -0.018,-0.006 -0.023,-0.012c-0.035,-0.023 -0.072,-0.035 -0.111,-0.051c-0.033,-0.014 -0.066,-0.03 -0.102,-0.037c-0.037,-0.008 -0.074,-0.004 -0.111,-0.004c-0.039,0 -0.076,-0.004 -0.113,0.004c-0.034,0.007 -0.064,0.023 -0.099,0.036c-0.04,0.016 -0.079,0.028 -0.114,0.053c-0.008,0.005 -0.016,0.005 -0.021,0.011l-2.435,1.765l-2.436,-1.765c-0.002,-0.003 -0.006,-0.003 -0.01,-0.005c-0.033,-0.023 -0.07,-0.034 -0.107,-0.05c-0.036,-0.016 -0.068,-0.037 -0.105,-0.045c-0.018,-0.004 -0.033,0 -0.051,-0.002c-0.059,-0.007 -0.117,-0.012 -0.176,-0.002c-0.02,0.004 -0.037,0.016 -0.055,0.021c-0.055,0.015 -0.109,0.031 -0.158,0.062c-0.002,0.002 -0.006,0.002 -0.01,0.004l-2.752,1.805l-2.555,-1.681l8.133,-14.282zm-22.846,22.841l4.35,7.246l-1.446,2.54l-2.312,-1.677c-0.003,-0.002 -0.007,-0.002 -0.009,-0.004c-0.039,-0.027 -0.084,-0.041 -0.127,-0.059c-0.029,-0.011 -0.057,-0.029 -0.086,-0.035c-0.027,-0.006 -0.055,-0.002 -0.084,-0.004c-0.047,-0.002 -0.096,-0.01 -0.143,-0.001c-0.021,0.003 -0.04,0.017 -0.061,0.022c-0.054,0.015 -0.107,0.03 -0.154,0.061c-0.002,0.002 -0.006,0.002 -0.01,0.004l-2.754,1.805l-2.678,-1.763l5.514,-8.135z"/>
   </g>
  </g>
  <g fill="#58ECF5" transform="matrix(1.2138762763009974,0,0,1.2138762763009974,260.56851199189134,-12.60959454210089)" featurekey="nameRightFeature-0" id="SvgjsG4561">
   <path id="svg_8" d="m24.71,28.12c2.52,-1.76 3.8,-4.2 3.84,-7.36c-0.04,-0.36 -0.04,-0.84 -0.08,-1.28c-0.12,-0.88 -0.4,-1.72 -0.88,-2.48c-0.48,-0.84 -1.24,-1.24 -2.2,-1.24c-0.84,0 -1.52,0.24 -2.2,0.72c-1.36,0.96 -2.36,2.24 -3.16,3.68c-0.68,1.16 -1.16,2.44 -1.52,3.72c-0.44,1.52 -0.68,3 -0.92,4.52c-0.16,1.16 -0.08,1.28 1.16,1.28c0.6,0 1.2,0 1.8,-0.08c1.52,-0.2 2.92,-0.6 4.16,-1.48zm-10.52,5.6c-0.44,-3.52 -0.72,-7.04 -0.64,-11.12c0,-1.04 0,-2.56 0.08,-4.12c0.08,-1.2 0.2,-2.4 0.2,-3.6c0,-0.32 0.08,-0.68 0.16,-0.96c0.24,-0.6 0.84,-0.92 1.48,-0.88s1.04,0.4 1.24,1c0.12,0.4 0.16,0.8 0.12,1.2c-0.08,1.4 -0.12,2.8 -0.16,4.2c0,0.08 0.08,0.12 0.16,0.16c0,0.04 0.08,0 0.12,-0.04l0.28,-0.48c0.2,-0.32 0.36,-0.68 0.56,-0.96c0.96,-1.56 2.08,-2.92 3.52,-3.96c1.28,-0.88 2.6,-1.44 4.16,-1.4c1.76,0.04 3.16,0.76 4.24,2.08c0.56,0.68 0.92,1.4 1.2,2.24c1.76,5.28 -0.36,11.24 -5.44,14.04c-0.72,0.4 -1.52,0.72 -2.32,0.96c-1.48,0.44 -3,0.6 -4.56,0.6l-0.84,0c-0.24,0 -0.44,0.16 -0.44,0.44s0,0.56 0.04,0.84l0.6,3.88c0.04,0.36 0.08,0.72 0,1.08c-0.12,0.68 -0.6,1.04 -1.24,1.12c-0.6,0.04 -1.16,-0.16 -1.4,-0.72c-0.28,-0.48 -0.44,-1.04 -0.52,-1.56c-0.24,-1.36 -0.44,-2.68 -0.6,-4.04zm27.03,-13.12c1.6,0 7.64,0.08 9.08,0.08c0.36,0 0.76,0 1.12,-0.04c0.16,0 0.32,-0.24 0.28,-0.4c-0.56,-1.96 -1.28,-3.8 -2.68,-5.32c-0.36,-0.4 -0.8,-0.76 -1.28,-1.08c-0.96,-0.6 -2,-0.64 -3.04,-0.12c-0.72,0.36 -1.36,0.84 -1.88,1.44c-1.16,1.4 -2,2.92 -2.56,4.64c-0.08,0.12 -0.12,0.28 -0.08,0.4c0,0.12 0.12,0.28 0.2,0.28c0.28,0.08 0.56,0.12 0.84,0.12zm-0.6,2.88l-1,0c-0.24,0 -0.44,0.16 -0.48,0.4c-0.12,0.4 -0.2,0.84 -0.24,1.24c-0.32,2.56 -0.44,5.12 -0.16,7.68c0.2,1.6 0.44,3.12 0.88,4.68c0.08,0.24 0.16,0.52 0.16,0.8c0.08,0.68 -0.32,1.28 -0.96,1.52c-0.56,0.24 -1.24,0 -1.64,-0.52c-0.16,-0.28 -0.28,-0.56 -0.4,-0.88c-0.24,-1 -0.52,-2 -0.72,-3c-0.28,-1.48 -0.4,-2.96 -0.4,-4.44c0.04,-1.56 -0.04,-3.08 0.12,-4.64c0.32,-3.64 1.2,-7.16 2.96,-10.4c0.84,-1.52 1.88,-2.92 3.28,-4c1.12,-0.88 2.4,-1.44 3.84,-1.52c1.16,-0.08 2.28,0.24 3.32,0.84c1.16,0.68 2.08,1.6 2.84,2.68c1.16,1.6 1.92,3.4 2.48,5.28c0.92,3.12 1.24,6.32 1.16,9.56c-0.08,3.04 -0.56,6.04 -1.48,8.96c-0.16,0.48 -0.36,0.96 -0.6,1.4c-0.32,0.56 -1.04,0.84 -1.72,0.6c-0.6,-0.24 -1.04,-0.92 -0.92,-1.56c0.08,-0.44 0.24,-0.84 0.36,-1.2c0.72,-2.28 1.2,-4.6 1.28,-7c0.04,-0.72 0.16,-1.4 0.16,-2.12c-0.04,-1.16 -0.12,-2.32 -0.24,-3.48c-0.04,-0.52 -0.16,-0.64 -0.68,-0.64c-1.76,-0.04 -9.48,-0.24 -11.2,-0.24zm30.71,0.48c0.36,-0.92 0.56,-1.88 0.56,-2.88c0,-0.36 0,-0.76 -0.08,-1.12c-0.12,-0.6 -0.28,-1.24 -0.56,-1.84c-0.4,-0.92 -1.12,-1.24 -2.04,-0.92c-0.4,0.12 -0.8,0.32 -1.12,0.6c-0.48,0.4 -0.96,0.88 -1.32,1.4c-0.52,0.8 -0.96,1.6 -1.32,2.48c-1.04,2.64 -1.52,5.44 -1.76,8.28c-0.04,0.24 0,0.48 0,0.68s0.2,0.32 0.4,0.28c1.08,-0.44 2.08,-1 3.04,-1.68c1.92,-1.36 3.32,-3.12 4.2,-5.28zm-8.32,-6.68c-0.12,0.76 -0.16,1.56 -0.08,2.52l1.16,-1.96c0.68,-1.16 1.64,-2.12 2.8,-2.84c1.12,-0.72 2.32,-1 3.64,-0.84c1.44,0.2 2.48,1.04 3.2,2.24c0.68,1.12 1,2.32 1.12,3.6c0.16,1.84 -0.16,3.6 -0.88,5.32c-1.36,3.2 -3.64,5.56 -6.64,7.32l-0.96,0.56c-0.04,0.04 -0.08,0.08 -0.08,0.12c0.04,0.08 0.08,0.16 0.12,0.2c0.64,0.28 1.24,0.32 1.92,0.08c0.4,-0.12 0.76,-0.28 1.2,-0.36c0.8,-0.16 1.4,0.2 1.64,0.92c0.24,0.64 0,1.32 -0.64,1.68c-1.24,0.72 -2.56,1.16 -4,0.8c-0.28,-0.08 -0.56,-0.16 -0.84,-0.16c-0.48,-0.08 -0.88,-0.56 -1.4,-0.32c-0.2,0.48 0.08,0.92 0.16,1.36c0.08,0.36 0.04,0.76 -0.12,1.08c-0.44,0.92 -1.64,1.12 -2.36,0.4c-0.28,-0.28 -0.48,-0.68 -0.56,-1.08c-0.28,-1.32 -0.56,-2.64 -0.8,-3.96c-0.36,-2.08 -0.56,-4.16 -0.68,-6.28c-0.12,-1.56 -0.12,-3.16 -0.16,-4.76c-0.04,-2.24 0.2,-4.48 0.32,-6.68c0.04,-0.68 0.16,-1.32 0.28,-1.96c0.12,-0.6 0.44,-1.04 1.04,-1.2c1,-0.32 2,0.48 1.92,1.56c-0.08,0.88 -0.2,1.76 -0.32,2.64zm17.03,20.4l-0.72,-4.96c-0.36,-2.48 -0.32,-4.96 -0.32,-7.8c0,-1.44 0,-3.28 0.16,-5.08c0.16,-1.88 0.12,-3.84 0.48,-5.72c0.08,-0.28 0.12,-0.56 0.2,-0.8c0.24,-0.68 0.92,-1.12 1.52,-1.04c0.72,0.12 1.32,0.8 1.32,1.56c0,0.16 -0.04,0.28 -0.04,0.44c-0.12,1.48 -0.32,2.96 -0.44,4.44c-0.2,3.12 -0.36,6.24 -0.24,9.36c0.04,0.48 -0.16,1.04 0.32,1.44c0.56,-0.04 0.84,-0.48 1.24,-0.8c1.32,-1.16 2.44,-2.48 3.32,-3.96c1.64,-2.76 2.96,-5.6 3.56,-8.76c0.08,-0.32 0.12,-0.64 0.24,-0.96c0.24,-0.68 0.84,-1.04 1.56,-0.96c0.68,0.04 1.2,0.6 1.2,1.32c0.04,0.44 0,0.92 -0.12,1.4c-0.32,1.16 -0.6,2.32 -1,3.48c-0.88,2.44 -2.12,4.76 -3.56,6.96c-1,1.56 -2.24,2.84 -3.64,4.04c-0.12,0.12 -0.28,0.24 -0.44,0.36c-0.2,0.2 -0.2,0.4 0.04,0.52c0.68,0.36 1.4,0.56 2.16,0.6c0.8,0.04 1.6,0.04 2.36,-0.24c0.44,-0.16 0.84,-0.04 1.2,0.16c0.92,0.56 0.92,1.84 0,2.44c-0.6,0.4 -1.28,0.56 -2,0.64c-1.56,0.16 -3.08,-0.04 -4.52,-0.68l-0.88,-0.4c-0.2,-0.08 -0.4,0.04 -0.36,0.24c0.08,0.6 0.2,1.2 0.28,1.8c0.04,0.44 0.12,0.92 0.08,1.4c-0.04,0.88 -0.72,1.4 -1.64,1.28c-0.48,-0.04 -0.84,-0.32 -1.04,-0.76c-0.16,-0.32 -0.24,-0.64 -0.28,-0.96z"/>
  </g>
 </g>
</svg>